{"title":"Heroes.of.Cosplay.S01E03.HDTV.XviD","uid":8859698,"size":407688134,"categoryP":"video","categoryS":"tv_shows","magnet":"?xt=urn:btih:349660e65fc1e55f4ce89acef151766b794e8b61&amp;dn=Heroes.of.Cosplay.S01E03.HDTV.XviD&amp;tr=udp%3A%2F%2Ftracker.openbittorrent.com%3A80&amp;tr=udp%3A%2F%2Fopen.demonii.com%3A1337&amp;tr=udp%3A%2F%2Ftracker.coppersurfer.tk%3A6969&amp;tr=udp%3A%2F%2Fexodus.desync.com%3A6969","seeders":1,"leechers":0,"uploader":null,"files":1,"time":1377744368,"description":"Heroes.of.Cosplay.S01E03.HDTV.XviD.avi\n\n\nVideo\nID                               : 0\nFormat                           : MPEG-4 Visual\nFormat profile                   : AdvancedSimple@L5\nFormat settings, BVOP            : Yes\nFormat settings, QPel            : Yes\nFormat settings, GMC             : No warppoints\nFormat settings, Matrix          : Default (H.263)\nCodec ID                         : XVID\nCodec ID/Hint                    : XviD\nDuration                         : 43mn 5s\nBit rate                         : 1100 Kbps\nWidth                            : 624 pixels\nHeight                           : 352 pixels\nDisplay aspect ratio             : 16:9\nFrame rate                       : 29.970 fps\nResolution                       : 24 bits\nColorimetry                      : 4:2:0\nScan type                        : Progressive\nBits/(Pixel*Frame)               : 0.166\nStream size                      : 337 MiB (87%)\nWriting library                  : XviD 1.2.1 (UTC 2008-12-04)\n\nAudio\nID                               : 1\nFormat                           : MPEG Audio\nFormat version                   : Version 1\nFormat profile                   : Layer 3\nCodec ID                         : 55\nCodec ID/Hint                    : MP3\nDuration                         : 43mn 5s\nBit rate mode                    : Constant\nBit rate                         : 160 Kbps\nChannel(s)                       : 2 channels\nSampling rate                    : 48.0 KHz\nResolution                       : 16 bits\nStream size                      : 49.3 MiB (13%)","torrent":{"xt":"urn:btih:349660e65fc1e55f4ce89acef151766b794e8b61","amp;dn":"Heroes.of.Cosplay.S01E03.HDTV.XviD","amp;tr":["udp%3A%2F%2Ftracker.openbittorrent.com%3A80","udp%3A%2F%2Fopen.demonii.com%3A1337","udp%3A%2F%2Ftracker.coppersurfer.tk%3A6969","udp%3A%2F%2Fexodus.desync.com%3A6969"],"infoHash":"349660e65fc1e55f4ce89acef151766b794e8b61","infoHashBuffer":{"type":"Buffer","data":[52,150,96,230,95,193,229,95,76,232,154,206,241,81,118,107,121,78,139,97]},"announce":[],"urlList":[]}}